<?xml version="1.0"?><svg width="1488.189" height="1052.3622" xmlns="http://www.w3.org/2000/svg" xmlns:xlink="http://www.w3.org/1999/xlink">
 <title>Beach</title>
 <defs>
  <path d="m287.310242,522.117371c0,0 60.495209,19.392151 123.098267,19.392151c62.603027,0 127.313904,-19.392151 127.313904,-19.392151" id="path16186" stroke-miterlimit="4" stroke-width="3" stroke="black" fill-rule="evenodd" fill-opacity="0.75" fill="none"/>.str3 {stroke:#1F1A17;stroke-width:0.0762}
    .str5 {stroke:#4D4948;stroke-width:0.0762}
    .str6 {stroke:#FFF500;stroke-width:0.0762}
    .str4 {stroke:white;stroke-width:0.0762}
    .str2 {stroke:#1F1A17;stroke-width:0.2794;stroke-linejoin:bevel}
    .str1 {stroke:#1F1A17;stroke-width:0.3528}
    .str0 {stroke:#1F1A17;stroke-width:0.7056}
    .str7 {stroke:#1F1A17;stroke-width:1.397}
    .str11 {stroke:#00923F;stroke-width:5.6444}
    .str8 {stroke:#0093DD;stroke-width:5.6444}
    .str12 {stroke:#1F1A17;stroke-width:5.6444}
    .str9 {stroke:#DA251D;stroke-width:5.6444}
    .str10 {stroke:#FFF500;stroke-width:5.6444}
    .fil4 {fill:none}
    .fil6 {fill:none;fill-rule:nonzero}
    .fil0 {fill:#0093DD}
    .fil11 {fill:#1F1A17}
    .fil2 {fill:#28166F}
    .fil14 {fill:#383431}
    .fil32 {fill:#49606C}
    .fil29 {fill:#4D4948}
    .fil26 {fill:#605D5C}
    .fil12 {fill:#838281}
    .fil15 {fill:#969594}
    .fil28 {fill:#C2C1C1}
    .fil31 {fill:#DEDEDD}
    .fil30 {fill:#F2AE7C}
    .fil1 {fill:white}
    .fil3 {fill:#131516}
    .fil22 {fill:#706A6D}
    .fil21 {fill:#7A7474}
    .fil20 {fill:#877D80}
    .fil25 {fill:#8C5D4F}
    .fil19 {fill:#918887}
    .fil18 {fill:#9E9390}
    .fil13 {fill:#A82926}
    .fil17 {fill:#AB9F99}
    .fil16 {fill:#B5A9A0}
    .fil24 {fill:#C28056}
    .fil23 {fill:white}
    .fil5 {fill:#1F1A17;fill-rule:nonzero}
    .fil7 {fill:url(#id0)}
    .fil8 {fill:url(#id1)}
    .fil27 {fill:url(#id2)}
    .fil10 {fill:url(#id3)}
    .fil9 {fill:url(#id4)}
  <linearGradient id="linearGradient2872">
   <stop id="stop2874" offset="0" stop-color="#dec164"/>
   <stop id="stop2876" offset="1" stop-opacity="0" stop-color="#dec164"/>
  </linearGradient>
  <linearGradient id="linearGradient2186">
   <stop id="stop2187" offset="0" stop-color="#004e00"/>
   <stop id="stop2188" offset="1" stop-color="#009300"/>
  </linearGradient>
  <linearGradient id="linearGradient3433">
   <stop id="stop3434" offset="0" stop-color="#6c2f07"/>
   <stop id="stop3435" offset="1" stop-color="#7e4932"/>
  </linearGradient>
  <linearGradient id="linearGradient2634" x1="0.195989" x2="1.237428" xlink:href="#linearGradient2872" y1="0.802282" y2="-0.285886"/>
  <linearGradient id="linearGradient2637" spreadMethod="pad" x1="2.462531" x2="2.462531" xlink:href="#linearGradient2186" y1="-3.028085" y2="2.086167"/>
  <linearGradient id="linearGradient2641" x1="4.53106" x2="4.203638" xlink:href="#linearGradient3433" y1="-2.030755" y2="-2.065177"/>
  <linearGradient id="linearGradient2644" spreadMethod="pad" x1="-1.462534" x2="-1.462534" xlink:href="#linearGradient2186" y1="-3.028085" y2="2.086167"/>
  <linearGradient id="linearGradient2648" x1="-3.500154" x2="-3.175604" xlink:href="#linearGradient3433" y1="-2.030755" y2="-2.065177"/>
  <linearGradient id="svg_160" x1="4.500154" x2="4.175604" xlink:href="#linearGradient3433" y1="-2.030755" y2="-2.065177"/>
  <linearGradient id="svg_162" x1="4.500154" x2="4.175604" xlink:href="#linearGradient3433" y1="3.030755" y2="3.065177"/>
  <linearGradient id="svg_164" x1="4.500154" x2="4.175604" xlink:href="#linearGradient3433" y1="-2.030755" y2="-2.065177"/></defs>
 <g>
  <title>Layer 1</title>
  <g id="layer7" transform="matrix(0.730009, 0, 0, 0.730009, 647.522, 199.379)"/>
  <g id="g7789" display="block" transform="matrix(0.730009, 0, 0, 0.730009, 647.522, 199.379)"/>
  <g id="layer5" transform="matrix(0.730009, 0, 0, 0.730009, 647.522, 199.379)"/>
  <path d="m536.738098,707.961182c-59.09259,1.76062 -536.507728,-45.724121 -536.169988,39.373962c0.33774,85.098083 -4.48814,-11.237305 0.78109,307.186707l1485.649945,-3.429199l-1.290527,-313.432434c-47.760376,-82.089417 -256.683594,39.282532 -362.247681,-3.064087l-147.427002,-15.613953c-46.157227,-14.159973 -87.836914,-20.857117 -147.427002,-15.614014c-48.644836,11.710815 -86.841736,18.94397 -135.486572,15.729248c-48.644836,-3.214722 -97.289673,-12.896851 -156.382263,-11.13623z" id="path6292" stroke-dashoffset="0" stroke-miterlimit="4" marker-end="none" marker-mid="none" marker-start="none" stroke-width="2.834905px" stroke="black" fill-rule="evenodd" fill="url(#linearGradient2634)"/>
  <path transform="rotate(2.78142 145.123 582.359)" d="m151.582993,233.556778c0,0 -31.677055,52.865555 -56.110344,135.230728c-24.434456,82.365265 -33.139725,110.640381 -41.662987,199.332733c-8.523323,88.693726 -1.724365,114.363953 9.071846,184.048462c10.796341,69.683105 59.805679,126.724487 59.805679,126.724487c0,0 24.19677,29.577698 55.662712,52.267273c17.291748,-14.652405 38.293945,-28.327942 61.934509,-35.995056c-15.347351,-7.361084 -33.119507,-18.966064 -50.062378,-37.351868c-42.617493,-46.247681 -80.224968,-121.048645 -84.109795,-158.776123c-2.518311,-24.450012 -14.24884,-62.675598 -4.591553,-158.776306c9.655884,-96.100616 22.023621,-137.274811 40.206596,-212.029999c18.183044,-74.755127 32.591125,-87.030884 32.591125,-87.030884l-22.735413,-7.643448z" id="path10508" stroke-dashoffset="0" stroke-miterlimit="4" marker-end="none" marker-mid="none" marker-start="none" stroke-width="1.04584684pt" stroke="black" fill-rule="evenodd" fill="url(#linearGradient2648)"/>
  <path transform="rotate(8.14928 191.66 234.604)" d="m176.59726,245.970444c-18.640335,-7.314163 -22.750809,24.242203 -36.484695,19.517075c-9.60025,-3.200104 -19.200531,-6.400208 -28.800766,-9.600235c7.713043,7.713028 15.426132,15.426071 23.139145,23.139053c-3.938171,4.455811 -6.127869,14.156799 -13.345581,8.773865c-6.294662,-2.098114 -12.58931,-4.196381 -18.883987,-6.294525c5.509277,7.162079 11.018677,14.324127 16.528015,21.486328c-4.682922,7.713074 -9.365845,15.426086 -14.048828,23.139069c-6.335701,-2.203644 -12.671425,-4.40741 -19.007149,-6.611176c4.88562,4.343689 12.27475,7.561554 15.607613,12.603271c1.48999,17.844879 -22.72599,5.357574 -28.830025,-2.686401c-2.225372,6.328033 7.253479,9.414154 10.182465,14.314423c4.478813,4.761902 9.287964,9.149475 14.609528,12.956604c1.431763,9.266327 -3.377014,9.913452 -10.939972,6.756622c-8.805145,-4.023407 -9.818878,-3.405121 -2.288307,3.154449c4.603554,4.817139 10.923126,8.751099 10.290718,16.262817c1.340515,9.606476 4.112244,18.922485 6.243141,28.368408c-8.651711,-3.869598 -15.534096,-9.951233 -21.374733,-17.33551c-9.107178,-9.853638 -18.782791,-19.293091 -24.363983,-31.717102c-4.526276,-7.187469 -1.371914,-16.479126 -2.516769,-24.592834c0.195099,-10.957458 -1.082352,-22.313843 0.035843,-33.021088c8.79715,-14.796661 17.374023,-29.749146 29.166382,-42.424286c6.907043,-10.301743 19.169014,-14.585983 29.157692,-21.281021c5.722198,-2.985535 11.444496,-5.971069 17.166794,-8.956604c-9.609573,-1.22345 -19.623734,0.096039 -28.987694,-0.534027c-10.112671,-5.498672 -19.526001,-12.854767 -30.076263,-17.19165c-11.620178,-3.69574 -2.342896,2.786865 2.261108,6.993317c6.81369,6.056671 13.627502,12.113342 20.441246,18.170044c-16.009575,-1.695663 -23.3825,16.200958 -35.977928,17.354263c-6.774933,0.411652 -11.766861,-5.724091 -17.738037,-8.263931c5.233856,6.335663 10.467758,12.671371 15.701538,19.007156c-8.318909,6.361664 -9.027679,30.748383 -14.422386,29.865326c-5.935661,-6.924927 -11.87142,-13.849976 -17.807152,-20.774963c5.529148,9.493927 12.810944,18.544769 17.280167,28.306488c-1.025757,10.052948 0.225723,20.724487 -6.036163,29.354706c-6.806076,-7.667938 -13.437206,-25.481903 -19.232208,-37.186981c-6.513824,-16.744598 -16.439484,-36.997101 -5.58403,-54.007095c9.355362,-20.579453 21.979462,-40.660461 42.336014,-51.887756c8.765991,-6.364899 17.898407,-12.130859 28.986969,-12.409363c11.460472,-3.096939 22.814125,2.338806 34.147377,3.918823c16.196548,4.858978 32.393204,9.717972 48.589767,14.576904c-3.547241,-10.534454 -6.03067,-21.604279 -13.753754,-30.037231c-7.874054,-10.891571 -16.784607,-21.34726 -27.566269,-29.463486c1.377396,-9.916756 2.754715,-19.833656 4.132095,-29.750404c-4.132034,9.090363 -8.263992,18.180756 -12.396011,27.271156c-8.264008,-1.377304 -16.527962,-2.754623 -24.792,-4.131958c-0.960152,-3.282326 -0.779541,-20.141518 -2.793365,-10.883217c-1.723572,14.733376 -23.471069,10.435158 -31.411026,21.840752c-4.844131,4.567856 -9.705368,-8.535477 -9.594711,-13.456467c-0.648491,-3.983955 2.187988,-17.340431 -3.323883,-12.99128c-0.269379,15.355659 -0.538696,30.711357 -0.808136,46.067039c-4.401543,4.74472 -8.194744,12.132706 -15.009857,6.392059c-3.85556,-3.792572 -5.393686,-11.183762 -6.476566,-16.731903c0.715981,-10.527771 -2.398384,-21.901352 3.933781,-31.188896c6.037964,-14.31369 14.149788,-27.564606 21.684662,-41.111252c10.134048,-4.737869 20.392883,-9.049911 31.687683,-9.826462c9.894653,-1.866684 19.983917,1.651443 29.811409,2.950912c8.249268,2.744278 17.42308,4.062363 25.110886,7.672897c9.39679,10.864044 18.60025,21.806305 24.781158,34.894409c12.676468,11.589447 14.454758,34.802635 18.656815,46.781944c5.959106,-19.502747 11.918396,-39.005455 17.877411,-58.508171c8.4823,-2.291382 18.798981,-0.690796 24.792023,-8.263977c-5.405579,-1.969894 -15.153748,0.327255 -17.611908,-4.538986c-2.100494,-7.319885 6.193268,-12.008514 9.08371,-18.064911c2.613892,-6.270493 11.140442,-3.958923 16.419006,-2.793564c9.9646,4.467758 8.133972,1.921738 0.90213,-3.836121c-6.315826,-4.831863 -10.603485,-8.888947 0.336884,-7.12793c6.998657,0.306946 14.712555,-1.748459 20.054504,4.030182c15.356323,10.657272 31.793304,20.360489 46.482025,31.606903c4.542694,9.165558 10.251831,17.969818 10.186401,28.562592c0.310181,5.070221 4.215942,17.941887 -2.391876,8.000862c-6.099304,-7.068581 -10.945038,-15.13343 -16.522552,-22.616615c-6.510223,-0.080322 -14.146484,1.909149 -16.343048,-6.099945c-4.25351,-8.645401 -6.285706,-8.42746 -5.919098,1.360321c-4.408905,-1.151581 -10.874237,-6.315552 -16.071014,-9.004517c2.455902,2.765778 8.988861,8.63913 13.006683,12.595306c8.876709,4.253296 -0.351379,8.918243 -3.942871,13.455017c-4.769592,3.587769 -7.640991,12.115974 -14.746887,9.623207c-4.132477,0.436203 -17.469818,-2.819466 -15.534821,0.050293c2.918457,4.416794 14.370514,7.403824 10.819153,12.90477c-9.925293,16.194 -19.850647,32.387985 -29.776001,48.581879c16.295349,-6.973053 28.850403,-20.750977 46.506927,-24.486923c27.849457,-7.409805 59.48645,-6.858658 84.498962,8.909988c12.371704,7.689163 25.861023,14.999252 32.759888,28.394958c4.95697,6.729706 9.834595,13.491699 9.949829,22.19165c4.249146,16.436142 0.663879,33.39122 0.654358,50.10939c-7.195618,-6.607025 -16.417358,-11.658508 -22.329285,-19.251343c-4.126404,-9.284439 -8.25293,-18.568863 -12.379333,-27.853287c1.37738,7.713074 2.754761,15.426071 4.132019,23.13916c-11.211243,-3.368469 -19.76239,-11.298065 -28.924072,-18.180817c-1.352051,-16.690887 -10.593536,-31.486465 -22.312714,-42.972778c4.152435,12.636047 8.90564,25.146942 8.986908,38.63089c-12.024963,-2.840286 -30.022003,-10.594559 -45.242065,-8.762573c-13.706543,2.66861 -41.374664,1.55365 -30.326263,22.277435c4.397827,19.284988 -13.271301,31.77269 -14.112793,49.82222c-0.541504,10.164063 4.069153,25.11853 -4.936859,10.435272c-5.889618,-7.717438 -11.779205,-15.434784 -17.668671,-23.152222c5.786133,-15.401093 5.817444,-37.887985 -17.354462,-34.708694z" id="path14335" stroke-dashoffset="0" stroke-miterlimit="4" marker-end="none" marker-mid="none" marker-start="none" stroke-width="1.417453" stroke="#001f00" fill-rule="evenodd" fill="#028700"/>
  <path id="svg_163" transform="rotate(-1.73781 1348.77 539.821)" d="m1342.204834,186.930359c0,0 32.175171,53.485336 56.992676,136.816101c24.818604,83.330872 33.660767,111.937469 42.318115,201.669495c8.657349,89.733521 1.751465,115.704712 -9.214478,186.206116c-10.966187,70.500061 -60.746216,128.210144 -60.746216,128.210144c0,0 -24.577271,29.924438 -56.537964,52.880005c-17.563721,-14.824158 -38.896118,-28.660034 -62.908447,-36.417053c15.588623,-7.447388 33.640259,-19.188416 50.849609,-37.789734c43.287598,-46.789856 81.486572,-122.467712 85.432373,-160.637512c2.557983,-24.736633 14.473022,-63.410339 4.663818,-160.637695c-9.807739,-97.227142 -22.369995,-138.884033 -40.838867,-214.515594c-18.468994,-75.631561 -33.103638,-88.051208 -33.103638,-88.051208l23.093018,-7.733063z" stroke-dashoffset="0" stroke-miterlimit="4" marker-end="none" marker-mid="none" marker-start="none" stroke-width="1.04584684pt" stroke="black" fill-rule="evenodd" fill="url(#svg_164)"/>
  <path id="svg_165" transform="rotate(-21.8435 1312.44 203.368)" d="m1326.265381,213.913406c17.109009,-6.786194 20.881714,22.492035 33.487427,18.108032c8.811523,-2.969086 17.623047,-5.938141 26.434692,-8.907135c-7.079468,7.156158 -14.158813,14.312408 -21.238281,21.468536c3.614624,4.134094 5.62439,13.13475 12.249146,8.140442c5.77771,-1.946625 11.555176,-3.893433 17.332886,-5.840118c-5.056885,6.64502 -10.113647,13.289993 -15.170288,19.935165c4.298096,7.156189 8.596313,14.312408 12.894531,21.468536c5.815308,-2.044556 11.630615,-4.089203 17.445801,-6.133881c-4.484253,4.030121 -11.266235,7.015656 -14.325317,11.693359c-1.367798,16.55661 20.858887,4.970825 26.461426,-2.492432c2.042725,5.871185 -6.657471,8.734497 -9.346069,13.281006c-4.11084,4.418121 -8.524658,8.488953 -13.409302,12.02121c-1.314209,8.597351 3.099731,9.197723 10.041382,6.268799c8.081787,-3.73291 9.012329,-3.159241 2.100342,2.926758c-4.225464,4.46936 -10.025757,8.119293 -9.445557,15.088745c-1.230225,8.912903 -3.774292,17.556335 -5.72998,26.320313c7.940796,-3.59021 14.257935,-9.232788 19.61853,-16.083984c8.359009,-9.142242 17.239624,-17.900208 22.362427,-29.427246c4.154297,-6.66861 1.259277,-15.289459 2.309937,-22.817383c-0.179077,-10.166412 0.993652,-20.702911 -0.032959,-30.637177c-8.074219,-13.728409 -15.946411,-27.601395 -26.770264,-39.361465c-6.3396,-9.558044 -17.593872,-13.532959 -26.762085,-19.744659c-5.252075,-2.769989 -10.504272,-5.540009 -15.75647,-8.309998c8.820068,-1.135101 18.011475,0.089111 26.606323,-0.495483c9.281738,-5.101746 17.921753,-11.926712 27.605225,-15.9505c10.665649,-3.428955 2.150513,2.585663 -2.075195,6.488464c-6.253906,5.619415 -12.507935,11.2388 -18.761963,16.858246c14.694458,-1.573273 21.461304,15.031342 33.022217,16.101379c6.218262,0.381927 10.800171,-5.310852 16.280762,-7.667328c-4.803833,5.878235 -9.607666,11.756561 -14.411499,17.634949c7.635376,5.902405 8.285767,28.528519 13.237549,27.709244c5.447876,-6.424973 10.895996,-12.850082 16.344116,-19.275131c-5.074829,8.808533 -11.758301,17.205917 -15.860596,26.262924c0.941406,9.327179 -0.207153,19.228302 5.540405,27.235443c6.246704,-7.114349 12.333252,-23.642273 17.652222,-34.502289c5.978638,-15.535721 15.088867,-34.326126 5.125122,-50.108109c-8.586792,-19.09375 -20.173706,-37.725021 -38.857788,-48.141739c-8.046021,-5.905441 -16.428101,-11.255112 -26.605591,-11.513474c-10.519043,-2.873413 -20.940063,2.169937 -31.342163,3.635895c-14.865967,4.508148 -29.731934,9.016388 -44.598022,13.524551c3.255981,-9.773941 5.535278,-20.044571 12.623779,-27.868759c7.227295,-10.10524 15.405762,-19.806061 25.301758,-27.336349c-1.264282,-9.200821 -2.528442,-18.401779 -3.792603,-27.6026c3.79248,8.434097 7.585083,16.86821 11.377563,25.302353c7.585205,-1.277878 15.170288,-2.555771 22.755127,-3.833664c0.88147,-3.045364 0.715454,-18.687424 2.564209,-10.097519c1.581787,13.669724 21.542603,9.681793 28.830078,20.264008c4.446533,4.238052 8.908203,-7.919296 8.806885,-12.485016c0.595215,-3.696335 -2.008301,-16.088562 3.050659,-12.053375c0.247314,14.24707 0.494263,28.494141 0.741699,42.741257c4.040161,4.402176 7.521606,11.256775 13.776855,5.930603c3.538696,-3.518784 4.950562,-10.376389 5.944458,-15.523972c-0.657227,-9.767731 2.201416,-20.32019 -3.610474,-28.937241c-5.541992,-13.280334 -12.987427,-25.574585 -19.903198,-38.143242c-9.301636,-4.395828 -18.717651,-8.396568 -29.084595,-9.117058c-9.081665,-1.731926 -18.342163,1.532219 -27.362183,2.737877c-7.571655,2.546158 -15.991821,3.769096 -23.047974,7.118958c-8.624878,10.079735 -17.072388,20.232018 -22.745483,32.375221c-11.634888,10.752762 -13.26709,32.2901 -17.124146,43.404572c-5.46936,-18.094757 -10.939209,-36.189484 -16.408447,-54.284225c-7.785522,-2.125946 -17.254761,-0.64093 -22.755371,-7.667358c4.961304,-1.827682 13.908813,0.303619 16.164917,-4.211273c1.927979,-6.791458 -5.684448,-11.141586 -8.337524,-16.760757c-2.39917,-5.817802 -10.225098,-3.673103 -15.070068,-2.591873c-9.145752,4.14521 -7.465576,1.782997 -0.828003,-3.559174c5.796997,-4.48304 9.732422,-8.247231 -0.309204,-6.613342c-6.423706,0.284805 -13.503784,-1.622223 -18.40686,3.739212c-14.094727,9.887894 -29.181396,18.890587 -42.663452,29.325104c-4.169434,8.50383 -9.409424,16.672485 -9.349609,26.500504c-0.284668,4.704193 -3.869385,16.646591 2.195435,7.423248c5.598389,-6.558273 10.045898,-14.040878 15.165161,-20.983826c5.975586,-0.074509 12.984375,1.771317 15.000244,-5.659546c3.904297,-8.021271 5.769531,-7.819046 5.433105,1.2621c4.046631,-1.068436 9.980835,-5.859604 14.750732,-8.354446c-2.25415,2.566116 -8.250488,8.015427 -11.93811,11.686005c-8.147461,3.946213 0.322388,8.274384 3.618896,12.483627c4.377808,3.328766 7.013184,11.241287 13.5354,8.928467c3.792969,0.404724 16.034424,-2.615906 14.258545,0.046661c-2.678711,4.097931 -13.189941,6.869293 -9.930298,11.973129c9.109863,15.024887 18.219849,30.049744 27.32959,45.074509c-14.956665,-6.469604 -26.480225,-19.252838 -42.686157,-22.719086c-25.561523,-6.874832 -54.599243,-6.363495 -77.556885,8.266724c-11.355469,7.134048 -23.736572,13.916412 -30.068604,26.345032c-4.549683,6.243881 -9.026611,12.51767 -9.132324,20.589539c-3.900146,15.249542 -0.609497,30.98056 -0.600708,46.491791c6.604492,-6.130066 15.068481,-10.816864 20.494873,-17.861542c3.787354,-8.614136 7.574951,-17.228302 11.362427,-25.842438c-1.264404,7.15625 -2.528564,14.312408 -3.792725,21.468658c10.290283,-3.125275 18.138794,-10.482391 26.547974,-16.868256c1.240967,-15.485901 9.723145,-29.213318 20.479492,-39.870422c-3.811279,11.723831 -8.17395,23.331512 -8.248535,35.84201c11.037109,-2.635254 27.555664,-9.829742 41.525269,-8.129974c12.580322,2.475922 37.975586,1.441498 27.834717,20.669098c-4.036377,17.892761 12.181152,29.478882 12.953491,46.225357c0.49707,9.430267 -3.734863,23.305115 4.53125,9.681885c5.405884,-7.160278 10.811646,-14.32045 16.217285,-21.480728c-5.311035,-14.289246 -5.339722,-35.15271 15.928589,-32.202911z" stroke-dashoffset="0" stroke-miterlimit="4" marker-end="none" marker-mid="none" marker-start="none" stroke-width="1.417453" stroke="#001f00" fill-rule="evenodd" fill="#028700"/>
 </g>
</svg>